<?xml version="1.0" standalone="no"?>
<!DOCTYPE svg PUBLIC "-//W3C//DTD SVG 20010904//EN"
 "http://www.w3.org/TR/2001/REC-SVG-20010904/DTD/svg10.dtd">
<svg version="1.0" xmlns="http://www.w3.org/2000/svg"
 width="512.000000pt" height="512.000000pt" viewBox="0 0 512.000000 512.000000"
 preserveAspectRatio="xMidYMid meet">

<g transform="translate(0.000000,512.000000) scale(0.100000,-0.100000)"
fill="#000000" stroke="none">
<path d="M1015 4734 c-71 -36 -112 -111 -102 -183 3 -25 112 -244 298 -597
162 -308 294 -562 294 -565 0 -3 -33 -34 -73 -69 -257 -222 -455 -567 -534
-930 -20 -92 -22 -133 -22 -335 0 -200 3 -243 22 -329 109 -489 384 -873 806
-1126 170 -102 370 -174 591 -212 163 -28 447 -22 604 12 619 133 1112 587
1286 1185 52 181 68 310 62 520 -6 213 -24 318 -83 495 -92 270 -281 556 -481
725 -37 32 -68 61 -68 64 0 3 132 258 294 565 209 399 295 571 299 601 6 56
-25 124 -74 161 l-37 29 -501 3 c-560 3 -541 5 -597 -68 -14 -19 -118 -212
-230 -427 -112 -216 -206 -393 -209 -393 -3 0 -95 170 -204 378 -242 458 -245
462 -294 490 -39 22 -43 22 -528 22 -424 0 -493 -2 -519 -16z m1638 -1927 c22
-12 50 -40 63 -63 l24 -41 0 -526 0 -527 110 0 c118 0 164 -12 209 -53 30 -28
61 -94 61 -132 0 -38 -31 -104 -61 -132 -57 -52 -68 -53 -501 -53 -448 0 -454
1 -511 69 -80 96 -48 228 68 282 31 15 64 19 153 19 l112 0 0 281 0 282 -54
-51 c-58 -55 -95 -68 -172 -59 -51 5 -106 43 -131 90 -22 43 -22 123 0 168 10
20 113 130 230 246 174 173 219 212 252 221 50 13 99 6 148 -21z"/>
</g>
</svg>
